<svg width="245" height="17" viewBox="0 0 245 17" fill="none" xmlns="http://www.w3.org/2000/svg">
<line x1="1" y1="8" x2="100" y2="8.00001" stroke="url(#paint0_linear_556_3974)" stroke-linecap="round"/>
<path d="M114.56 6.958C115.4 6.958 116.067 7.07467 116.562 7.308C117.066 7.54133 117.425 7.924 117.64 8.456C117.864 8.988 117.976 9.69267 117.976 10.57C117.976 11.4473 117.864 12.152 117.64 12.684C117.425 13.2067 117.066 13.5893 116.562 13.832C116.067 14.0653 115.4 14.182 114.56 14.182C113.739 14.182 113.076 14.0653 112.572 13.832C112.077 13.5893 111.718 13.2067 111.494 12.684C111.27 12.152 111.158 11.4473 111.158 10.57C111.158 9.69267 111.27 8.988 111.494 8.456C111.718 7.924 112.077 7.54133 112.572 7.308C113.076 7.07467 113.739 6.958 114.56 6.958ZM114.56 8.246C114.149 8.246 113.823 8.316 113.58 8.456C113.347 8.58667 113.179 8.82 113.076 9.156C112.973 9.492 112.922 9.96333 112.922 10.57C112.922 11.1767 112.973 11.648 113.076 11.984C113.179 12.32 113.347 12.5533 113.58 12.684C113.823 12.8147 114.149 12.88 114.56 12.88C114.98 12.88 115.311 12.8147 115.554 12.684C115.797 12.5533 115.965 12.32 116.058 11.984C116.161 11.648 116.212 11.1767 116.212 10.57C116.212 9.96333 116.161 9.492 116.058 9.156C115.965 8.82 115.797 8.58667 115.554 8.456C115.311 8.316 114.98 8.246 114.56 8.246ZM120.889 7.126L121.113 8.47L121.267 8.666V14H119.573V7.126H120.889ZM124.249 6.958L124.081 8.526H123.591C123.227 8.526 122.858 8.58667 122.485 8.708C122.112 8.82933 121.645 9.01133 121.085 9.254L120.973 8.26C121.458 7.84933 121.953 7.532 122.457 7.308C122.961 7.07467 123.446 6.958 123.913 6.958H124.249Z" fill="#4F4E4E"/>
<line x1="244" y1="9" x2="135" y2="9" stroke="url(#paint1_linear_556_3974)" stroke-linecap="round"/>
<defs>
<linearGradient id="paint0_linear_556_3974" x1="-13" y1="8.5" x2="175.5" y2="8.5" gradientUnits="userSpaceOnUse">
<stop stop-color="#4F4E4E" stop-opacity="0"/>
<stop offset="1" stop-color="#4F4E4E"/>
</linearGradient>
<linearGradient id="paint1_linear_556_3974" x1="259.35" y1="8.5" x2="52" y2="8.50002" gradientUnits="userSpaceOnUse">
<stop stop-color="#4F4E4E" stop-opacity="0"/>
<stop offset="1" stop-color="#4F4E4E"/>
</linearGradient>
</defs>
</svg>
